<?xml version="1.0" encoding="UTF-8"?>
<svg width="23px" height="23px" viewBox="0 0 23 23" version="1.1" xmlns="http://www.w3.org/2000/svg" xmlns:xlink="http://www.w3.org/1999/xlink">
    <!-- Generator: Sketch 58 (84663) - https://sketch.com -->
    <title>icon_dinero</title>
    <desc>Created with Sketch.</desc>
    <defs>
        <path d="M11.5,0.879411765 C17.3656774,0.879411765 22.1205882,5.63432259 22.1205882,11.5 C22.1205882,17.3656774 17.3656774,22.1205882 11.5,22.1205882 C5.63432255,22.1205882 0.879411765,17.3656774 0.879411765,11.5 C0.886206561,5.63718355 5.63718351,0.885848873 11.5,0.879411765 Z M11.5,2.34422184 C6.44576159,2.34994375 2.34994374,6.44576155 2.34422183,11.5 C2.34422183,16.5567418 6.44325823,20.6557782 11.5,20.6557782 C16.5567418,20.6557782 20.6557782,16.5567418 20.6557782,11.5 C20.6557782,6.44325819 16.5567418,2.34422184 11.5,2.34422184 Z M11.4089558,4.6 C11.8113527,4.6 12.1376108,4.92793143 12.1376108,5.33239216 L12.1376108,5.33239216 L12.1376108,5.99898346 C13.5781988,6.30438531 14.6096299,7.58070736 14.6117647,9.06051139 C14.6117647,9.46497212 14.2855065,9.79290355 13.8831097,9.79290355 C13.4807128,9.79290355 13.1544546,9.46497212 13.1544546,9.06051139 C13.1544546,8.14216029 12.4137028,7.39760932 11.5000377,7.39760932 C10.5863726,7.39760932 9.84562068,8.14216029 9.84562068,9.06051139 C9.84562068,9.97886249 10.5863726,10.7234135 11.5000377,10.7234135 C13.0943263,10.7237711 14.4303125,11.9350076 14.5946869,13.5288903 C14.7587054,15.122773 13.6980996,16.5836237 12.1376108,16.9119127 L12.1376108,16.9119127 L12.1376108,17.5999608 C12.1376108,18.0044215 11.8113527,18.3323529 11.4089558,18.3323529 C11.0065589,18.3323529 10.6803008,18.0044215 10.6803008,17.5999608 L10.6803008,17.5999608 L10.6803008,16.8675686 C9.32830412,16.4945779 8.3904454,15.2600966 8.38831063,13.8507423 C8.38831063,13.4462816 8.71456883,13.1183502 9.11696565,13.1183502 C9.51936257,13.1183502 9.84562068,13.4462816 9.84562068,13.8507423 C9.84704393,14.6947099 10.4764339,15.4042148 11.3107581,15.5018432 C11.3940126,15.4893267 11.4783346,15.4925453 11.5605218,15.5104259 C12.4613784,15.4775255 13.1701093,14.725107 13.1533873,13.8192724 C13.1370209,12.9134378 12.4016059,12.1878402 11.5000377,12.1878402 C9.94132788,12.1881979 8.62313118,11.0291729 8.41606218,9.47641575 C8.20899318,7.92365859 9.17673814,6.45637096 10.6803008,6.0436851 L10.6803008,6.0436851 L10.6803008,5.33239216 C10.6803008,4.92793143 11.0065589,4.6 11.4089558,4.6 Z" id="path-1"></path>
    </defs>
    <g id="UiKit" stroke="none" stroke-width="1" fill="none" fill-rule="evenodd">
        <g id="icon_dinero">
            <rect id="Mask" x="0" y="0" width="23" height="23"></rect>
            <mask id="mask-2" fill="white">
                <use xlink:href="#path-1"></use>
            </mask>
            <use id="Element" fill="#000000" fill-rule="nonzero" xlink:href="#path-1"></use>
            <g id="Color-/-Blanco" mask="url(#mask-2)" fill="#FFFFFF">
                <g transform="translate(0.067647, 0.067647)" id="Rectangle">
                    <rect x="0" y="0" width="23" height="23"></rect>
                </g>
            </g>
        </g>
    </g>
</svg>