<?xml version="1.0" encoding="UTF-8"?>
<svg width="30px" height="30px" viewBox="0 0 30 30" version="1.1" xmlns="http://www.w3.org/2000/svg" xmlns:xlink="http://www.w3.org/1999/xlink">
    <!-- Generator: Sketch 58 (84663) - https://sketch.com -->
    <title>icon_buscar</title>
    <desc>Created with Sketch.</desc>
    <defs>
        <path d="M10.9555147,0.0823529412 C16.9509761,0.0823529412 21.8286765,4.96005331 21.8286765,10.9555147 C21.8286765,12.9794578 21.2770753,14.9251443 20.2265862,16.6316245 L20.023786,16.9487471 L27.2805341,24.2054953 C27.6913222,24.6159571 27.9176471,25.1620073 27.9176471,25.7430147 C27.9176471,26.3240221 27.6913222,26.8700723 27.280371,27.2806972 C26.8696917,27.6913766 26.3236959,27.9176471 25.7430147,27.9176471 C25.2268536,27.9176471 24.7380983,27.7388654 24.3472724,27.4105884 L24.2054409,27.2805341 L16.9487471,20.0238403 C15.1681038,21.2059161 13.1060086,21.8286765 10.9555147,21.8286765 C4.96005331,21.8286765 0.0823529412,16.9509761 0.0823529412,10.9555147 C0.0823529412,4.96005331 4.96005331,0.0823529412 10.9555147,0.0823529412 Z M21.6842265,20.1469789 C21.3062754,20.5874289 20.9015328,21.0046365 20.4728658,21.3958181 L20.1469245,21.6842809 L24.9743365,26.5116929 C25.1798393,26.7171956 25.45281,26.8303309 25.7430147,26.8303309 C26.0332194,26.8303309 26.3061901,26.7171956 26.5116929,26.5116929 C26.7171956,26.3062989 26.8303309,26.0334369 26.8303309,25.7430147 C26.8303309,25.4940814 26.7472111,25.2580495 26.5941183,25.0664847 L26.5118016,24.974554 L21.6842265,20.1469789 Z M19.3709614,17.8336594 C19.0027526,18.2837648 18.5999237,18.702973 18.1654252,19.0883335 L17.8336594,19.3709614 L19.3760717,20.9133737 C19.8189574,20.5381626 20.2368956,20.1337245 20.6265184,19.7035109 L20.9133737,19.3760717 L19.3709614,17.8336594 Z M10.9555147,1.16966912 C5.55959945,1.16966912 1.16966912,5.55959945 1.16966912,10.9555147 C1.16966912,16.35143 5.55959945,20.7413603 10.9555147,20.7413603 C12.9088462,20.7413603 14.7811279,20.1706404 16.3936882,19.0873076 L16.692956,18.8781897 L17.0031471,18.6435792 C17.7150051,18.0828773 18.3445417,17.4281108 18.8781353,16.6930103 C20.0970711,15.0148466 20.7413603,13.0309295 20.7413603,10.9555147 C20.7413603,5.55959945 16.35143,1.16966912 10.9555147,1.16966912 Z M10.9299308,2.21093426 C15.73764,2.21093426 19.6489273,6.12222161 19.6489273,10.9299308 C19.6489273,15.73764 15.73764,19.6489273 10.9299308,19.6489273 C6.12222161,19.6489273 2.21093426,15.73764 2.21093426,10.9299308 C2.21093426,6.12222161 6.12222161,2.21093426 10.9299308,2.21093426 Z M10.9299308,3.30080882 C6.72323294,3.30080882 3.30080882,6.72323294 3.30080882,10.9299308 C3.30080882,15.1366287 6.72323294,18.5590528 10.9299308,18.5590528 C15.1366287,18.5590528 18.5590528,15.1366287 18.5590528,10.9299308 C18.5590528,6.72323294 15.1366287,3.30080882 10.9299308,3.30080882 Z M16.9063322,10.3977855 C17.2000764,10.3977855 17.4384775,10.6361866 17.4384775,10.9299308 C17.4384775,11.223675 17.2000764,11.4620761 16.9063322,11.4620761 C16.612588,11.4620761 16.3741869,11.223675 16.3741869,10.9299308 C16.3741869,10.6361866 16.612588,10.3977855 16.9063322,10.3977855 Z M10.9447627,4.42138408 C12.296945,4.42138408 13.5964535,4.82719141 14.7027696,5.59492035 C15.7833778,6.34471575 16.6034607,7.38291066 17.0744628,8.5971902 C17.182819,8.87654168 17.0420271,9.1899723 16.7600603,9.29730265 C16.6955717,9.32184613 16.6292234,9.33349481 16.5640237,9.33349481 C16.3441388,9.33349481 16.1368892,9.2012959 16.0533111,8.98587668 C15.2456992,6.90379796 13.1927843,5.50498174 10.9447627,5.50498174 C10.6427219,5.50498174 10.3977855,5.26236423 10.3977855,4.96318291 C10.3977855,4.6640016 10.6427219,4.42138408 10.9447627,4.42138408 Z" id="path-1"></path>
    </defs>
    <g id="UiKit" stroke="none" stroke-width="1" fill="none" fill-rule="evenodd">
        <g id="icon_buscar">
            <rect id="Mask" x="0" y="0" width="30" height="30"></rect>
            <g id="Icon-/-Buscar" transform="translate(15.000000, 15.000000) scale(-1, 1) translate(-15.000000, -15.000000) translate(1.000000, 1.000000)">
                <mask id="mask-2" fill="white">
                    <use xlink:href="#path-1"></use>
                </mask>
                <use id="Element" fill="#000000" fill-rule="nonzero" xlink:href="#path-1"></use>
                <g id="Color-/-Blanco" mask="url(#mask-2)" fill="#FFFFFF" fill-rule="evenodd">
                    <rect id="Rectangle" x="0" y="0" width="28" height="28"></rect>
                </g>
            </g>
        </g>
    </g>
</svg>