<?xml version="1.0" encoding="UTF-8"?>
<svg width="25px" height="25px" viewBox="0 0 25 25" version="1.1" xmlns="http://www.w3.org/2000/svg" xmlns:xlink="http://www.w3.org/1999/xlink">
    <title>icon_filter</title>
    <defs>
        <path d="M21.4324619,18.75 C23.1559804,18.75 24.5588235,20.1522321 24.5588235,21.875 C24.5588235,23.5977679 23.1559804,25 21.4324619,25 C19.8607952,25 18.5597821,23.8330357 18.3418301,22.3214286 L18.3418301,22.3214286 L0.887799564,22.3214286 C0.641263617,22.3214286 0.441176471,22.121875 0.441176471,21.875 C0.441176471,21.628125 0.641263617,21.4285714 0.887799564,21.4285714 L0.887799564,21.4285714 L18.3418301,21.4285714 C18.5597821,19.9169643 19.8607952,18.75 21.4324619,18.75 Z M21.4324619,19.6428571 C20.201122,19.6428571 19.1993464,20.6441964 19.1993464,21.875 C19.1993464,23.1058036 20.201122,24.1071429 21.4324619,24.1071429 C22.6638017,24.1071429 23.6655773,23.1058036 23.6655773,21.875 C23.6655773,20.6441964 22.6638017,19.6428571 21.4324619,19.6428571 Z M12.592451,9.19117647 C14.2476362,9.19117647 15.6138562,10.4535113 15.790719,12.070485 L15.790719,12.070485 L24.1122004,12.070485 C24.359183,12.070485 24.5588235,12.2711477 24.5588235,12.519395 C24.5588235,12.7676422 24.359183,12.9683049 24.1122004,12.9683049 L24.1122004,12.9683049 L15.7621351,12.9683049 C15.5044336,14.4945988 14.1833224,15.6617647 12.592451,15.6617647 C11.0015795,15.6617647 9.68002179,14.4945988 9.42232026,12.9683049 L9.42232026,12.9683049 L0.887799564,12.9683049 C0.641263617,12.9683049 0.441176471,12.7676422 0.441176471,12.519395 C0.441176471,12.2711477 0.641263617,12.070485 0.887799564,12.070485 L0.887799564,12.070485 L9.39418301,12.070485 C9.57104575,10.4539602 10.9372658,9.19117647 12.592451,9.19117647 Z M12.592451,10.0889964 C11.3101961,10.0889964 10.2668845,11.1376501 10.2668845,12.4264706 C10.2668845,13.7152911 11.3101961,14.7639448 12.592451,14.7639448 C13.8747059,14.7639448 14.9180174,13.7152911 14.9180174,12.4264706 C14.9180174,11.1376501 13.8747059,10.0889964 12.592451,10.0889964 Z M3.56753813,0 C5.13920479,0 6.44021786,1.16696429 6.65816993,2.67857143 L6.65816993,2.67857143 L24.1122004,2.67857143 C24.359183,2.67857143 24.5588235,2.878125 24.5588235,3.125 C24.5588235,3.371875 24.359183,3.57142857 24.1122004,3.57142857 L24.1122004,3.57142857 L6.65816993,3.57142857 C6.44021786,5.08303571 5.13920479,6.25 3.56753813,6.25 C1.84357298,6.25 0.441176471,4.84776786 0.441176471,3.125 C0.441176471,1.40223214 1.84357298,0 3.56753813,0 Z M3.56753813,0.892857143 C2.33619826,0.892857143 1.33442266,1.89419643 1.33442266,3.125 C1.33442266,4.35580357 2.33619826,5.35714286 3.56753813,5.35714286 C4.798878,5.35714286 5.80065359,4.35580357 5.80065359,3.125 C5.80065359,1.89419643 4.798878,0.892857143 3.56753813,0.892857143 Z" id="path-1"></path>
    </defs>
    <g id="UiKit" stroke="none" stroke-width="1" fill="none" fill-rule="evenodd">
        <g id="Varios" transform="translate(-699.000000, -298.000000)">
            <g id="Icon-/-Filtrar" transform="translate(699.000000, 298.000000)">
                <mask id="mask-2" fill="white">
                    <use xlink:href="#path-1"></use>
                </mask>
                <use id="Mask" fill="#000000" fill-rule="nonzero" xlink:href="#path-1"></use>
                <g id="Color-/-Azul" mask="url(#mask-2)" fill="#5567AE" fill-rule="evenodd">
                    <rect id="Rectangle" x="0" y="0" width="25" height="25"></rect>
                </g>
            </g>
        </g>
    </g>
</svg>